# xmcd
#
# Track frame offsets: 
#        150
#        19798
#        41494
#        63538
#        83267
#        105024
#        124104
#        150150
#        167314
#        190402
#        212300
#        230936
#        254185
#        269638
#        306665
#        323097
#
# Disc length: 4503 seconds
#
# Revision: 0
# Processed by: cddbd v1.5.1PL2 Copyright (c) Steve Scherf et al.
# Submitted via: ExactAudioCopy v0.95b3
#
DISCID=d1119510
DTITLE=Lucky Peterson - Ray Dunnetts' Birthday Party [CD2 of 2)
DYEAR=2004
DGENRE=Blues
TTITLE0=Smooth Sailing
TTITLE1=Ain't Doin Bad
TTITLE2=Ask Me Nothing About The Blues
TTITLE3=The Other Side
TTITLE4=Seduction
TTITLE5=Talkin' Out Loud - Saying Nothing
TTITLE6=I Found A Love
TTITLE7=Pourin' Money Down A Drownin' Love Affair
TTITLE8=Compared To What
TTITLE9=Up From The Skies
TTITLE10=Your Good Thing's About To Run Out
TTITLE11=Smoke Stack Lightning
TTITLE12=Repo Man
TTITLE13=Nothing But Smoke
TTITLE14=Locked Out Of Love
TTITLE15=Don't Cloud Up On Me
EXTD=
EXTT0=
EXTT1=
EXTT2=
EXTT3=
EXTT4=
EXTT5=
EXTT6=
EXTT7=
EXTT8=
EXTT9=
EXTT10=
EXTT11=
EXTT12=
EXTT13=
EXTT14=
EXTT15=
PLAYORDER=
